Title                            : London Boulevard
Year                             : 2010
Genre                            : Crime | Romance
iMDB URL                         : http://www.imdb.com/title/tt1213648/

Complete name                    : London.Boulevard.2010.BRRIP.720P.H264-ZEKTORM.mp4
Format                           : MPEG-4
Format profile                   : Base Media
Codec ID                         : isom
File size                        : 2.44 GiB
Duration                         : 1h 43mn
Overall bit rate                 : 3392 Kbps
Subtitles                        : English (Format: srt)

Video
ID                               : 1
Format                           : AVC
Format/Info                      : Advanced Video Codec
Format profile                   : High@L4.0
Format settings, CABAC           : Yes
Format settings, ReFrames        : 9 frames
Codec ID                         : avc1
Codec ID/Info                    : Advanced Video Coding
Duration                         : 1h 43mn
Bit rate mode                    : Variable
Bit rate                         : 2974 Kbps
Width                            : 1280 pixels
Height                           : 688 pixels
Display aspect ratio             : 1.860
Frame rate mode                  : Constant
Frame rate                       : 23.976 fps
Resolution                       : 24 bits
Colorimetry                      : 4:2:0
Scan type                        : Progressive
Bits/(Pixel*Frame)               : 0.141
Stream size                      : 2.14 GiB (88%)
Title                            : Video
Writing library                  : x264

Audio
ID                               : 2
Format                           : AAC
Format/Info                      : Advanced Audio Codec
Format version                   : Version 4
Format profile                   : LC
Format settings, SBR             : No
Codec ID                         : 40
Duration                         : 1h 43mn
Bit rate mode                    : Variable
Bit rate                         : 414 Kbps
Maximum bit rate                 : 562 Kbps
Channel(s)                       : 6 channels
Channel positions                : Front: L C R, Rear: L R, LFE
Sampling rate                    : 48.0 KHz
Resolution                       : 16 bits
Stream size                      : 305 MiB (12%)
Language                         : English


Screenshots:
 
http://www.leetleech.org/images/60442883722576532925.png
 
http://www.leetleech.org/images/46267903669745889683.png
 
http://www.leetleech.org/images/89451303284197187432.png
 
http://www.leetleech.org/images/47647903931246515783.png
